<svg width="937" height="373" viewBox="0 0 937 373" fill="none" xmlns="http://www.w3.org/2000/svg">
<path d="M286.551 0C308.649 0 327.957 5.03453 344.475 15.1036C360.993 25.1727 373.828 39.1575 382.979 57.058C392.131 75.1823 396.707 96.2155 396.707 120.157C396.707 144.323 392.02 165.58 382.645 183.928C373.046 202.5 359.542 216.932 342.131 227.225C324.497 237.742 303.627 243 279.52 243C252.064 243 229.296 236.399 211.216 223.198C193.136 209.996 181.417 191.76 176.06 168.489H223.939C227.511 179.453 233.984 187.956 243.359 193.997C252.734 200.262 264.787 203.395 279.52 203.395C302.957 203.395 321.037 195.899 333.761 180.907C346.484 166.139 352.845 145.778 352.845 119.822C352.845 93.866 346.595 73.7279 334.095 59.4075C321.372 45.3108 304.185 38.2624 282.533 38.2624C261.328 38.2624 245.368 43.9682 234.653 55.3798C223.716 67.0152 217.131 82.2307 214.899 101.026H274.162V133.247H171.707V4.02762H211.216L214.564 34.9061C222.153 23.7182 231.64 15.1036 243.024 9.06215C254.408 3.02072 268.917 0 286.551 0Z" fill="#00D13B"/>
<path d="M552.457 243.253C529.576 243.253 508.984 238.105 490.679 227.809C472.661 217.227 458.36 202.926 447.778 184.908C437.482 166.603 432.333 146.154 432.333 123.559C432.333 100.678 437.482 80.2288 447.778 62.2103C458.36 43.9057 472.661 29.6053 490.679 19.309C508.984 8.72668 529.576 3.43555 552.457 3.43555C575.338 3.43555 595.787 8.72668 613.806 19.309C631.824 29.6053 645.982 43.9057 656.278 62.2103C666.86 80.2288 672.151 100.678 672.151 123.559L661.426 140.72C661.426 160.168 656.564 177.615 646.84 193.059C637.401 208.503 624.531 220.802 608.229 229.954C591.926 238.82 573.336 243.253 552.457 243.253ZM552.457 219.229C570.475 219.229 586.492 215.082 600.506 206.787C614.807 198.207 625.961 186.767 633.969 172.466C642.264 157.88 646.411 141.578 646.411 123.559C646.411 105.254 642.264 88.952 633.969 74.6516C625.961 60.0652 614.807 48.6249 600.506 40.3306C586.492 31.7504 570.475 27.4602 552.457 27.4602C534.724 27.4602 518.708 31.7504 504.408 40.3306C490.107 48.6249 478.81 60.0652 470.516 74.6516C462.221 88.952 458.074 105.254 458.074 123.559C458.074 141.578 462.221 157.88 470.516 172.466C478.81 186.767 490.107 198.207 504.408 206.787C518.708 215.082 534.724 219.229 552.457 219.229ZM659.281 240.679C655.563 240.679 652.417 239.535 649.843 237.247C647.555 234.673 646.411 231.527 646.411 227.809V149.3L654.562 123.559H672.151V227.809C672.151 231.527 671.007 234.673 668.719 237.247C666.431 239.535 663.285 240.679 659.281 240.679Z" fill="#1C1C1C"/>
<path d="M8.58026 99.9633C10.2963 81.6588 15.3015 65.4993 23.5957 51.4849C31.8899 37.1845 42.6152 26.0302 55.7716 18.0219C68.928 10.0137 83.5144 6.00958 99.5309 6.00958C110.399 6.00958 118.836 7.29662 124.843 9.8707C130.849 12.4448 133.137 17.0209 131.707 23.5991C130.849 27.8892 128.847 30.4633 125.701 31.3214C122.555 32.1794 118.693 32.3223 114.117 31.7503C109.827 30.8923 104.965 30.4633 99.5309 30.4633C85.2305 30.4633 72.5031 33.4664 61.3488 39.4725C50.1945 45.4787 41.4712 53.773 35.179 64.3553C28.8868 74.6516 25.7408 86.5209 25.7408 99.9633H8.58026ZM12.8704 243.253C9.15225 243.253 6.0062 242.109 3.43213 239.821C1.14406 237.247 0 234.101 0 230.383V21.454C0 17.4499 1.14406 14.3038 3.43213 12.0157C6.0062 9.72768 9.15225 8.58365 12.8704 8.58365C16.8745 8.58365 20.0206 9.72768 22.3087 12.0157C24.5967 14.3038 25.7408 17.4499 25.7408 21.454V230.383C25.7408 234.101 24.5967 237.247 22.3087 239.821C20.0206 242.109 16.8745 243.253 12.8704 243.253Z" fill="#1C1C1C"/>
<path d="M817.013 243.25C794.132 243.25 773.54 238.102 755.235 227.806C737.217 217.223 722.917 202.923 712.334 184.904C702.038 166.6 696.89 146.15 696.89 123.556C696.89 100.675 702.038 80.2254 712.334 62.2068C722.917 43.9023 737.217 29.6019 755.235 19.3056C773.54 8.72327 794.132 3.43213 817.013 3.43213C839.893 3.43213 860.343 8.72327 878.362 19.3056C896.38 29.6019 910.537 43.9023 920.833 62.2068C931.416 80.2254 936.707 100.675 936.707 123.556L925.982 140.716C925.982 160.165 921.12 177.611 911.395 193.056C901.957 208.5 889.087 220.798 872.784 229.951C856.482 238.817 837.891 243.25 817.013 243.25ZM817.013 219.225C835.031 219.225 851.048 215.078 865.062 206.784C879.362 198.204 890.517 186.763 898.525 172.463C906.819 157.877 910.966 141.574 910.966 123.556C910.966 105.251 906.819 88.9486 898.525 74.6482C890.517 60.0618 879.362 48.6214 865.062 40.3272C851.048 31.747 835.031 27.4568 817.013 27.4568C799.28 27.4568 783.264 31.747 768.964 40.3272C754.663 48.6214 743.366 60.0618 735.072 74.6482C726.778 88.9486 722.631 105.251 722.631 123.556C722.631 141.574 726.778 157.877 735.072 172.463C743.366 186.763 754.663 198.204 768.964 206.784C783.264 215.078 799.28 219.225 817.013 219.225ZM923.837 240.676C920.119 240.676 916.973 239.532 914.398 237.244C912.11 234.67 910.966 231.524 910.966 227.806V149.296L919.117 123.556H936.707V227.806C936.707 231.524 935.563 234.67 933.275 237.244C930.987 239.532 927.841 240.676 923.837 240.676Z" fill="#1C1C1C"/>
<path d="M19.7411 358V314.364H34.4854C37.8945 314.364 40.6928 314.946 42.8803 316.111C45.0678 317.261 46.6871 318.845 47.7383 320.862C48.7894 322.879 49.315 325.173 49.315 327.744C49.315 330.315 48.7894 332.595 47.7383 334.584C46.6871 336.572 45.0749 338.135 42.9016 339.271C40.7283 340.393 37.9514 340.955 34.5707 340.955H22.6388V336.182H34.4002C36.7298 336.182 38.6048 335.841 40.0252 335.159C41.4599 334.477 42.4968 333.511 43.136 332.261C43.7894 330.997 44.1161 329.491 44.1161 327.744C44.1161 325.997 43.7894 324.47 43.136 323.163C42.4826 321.857 41.4386 320.848 40.0039 320.138C38.5692 319.413 36.6729 319.051 34.315 319.051H25.0252V358H19.7411ZM40.2809 338.398L51.0195 358H44.8832L34.315 338.398H40.2809ZM70.8082 358.682C67.6548 358.682 64.9347 357.986 62.6477 356.594C60.375 355.188 58.6207 353.227 57.3849 350.713C56.1634 348.185 55.5526 345.244 55.5526 341.892C55.5526 338.54 56.1634 335.585 57.3849 333.028C58.6207 330.457 60.3395 328.455 62.5412 327.02C64.7571 325.571 67.3423 324.847 70.2969 324.847C72.0014 324.847 73.6847 325.131 75.3466 325.699C77.0085 326.267 78.5213 327.19 79.8849 328.469C81.2486 329.733 82.3352 331.409 83.1449 333.497C83.9545 335.585 84.3594 338.156 84.3594 341.21V343.341H59.1321V338.994H79.2457C79.2457 337.148 78.8764 335.5 78.1378 334.051C77.4134 332.602 76.3764 331.459 75.027 330.621C73.6918 329.783 72.1151 329.364 70.2969 329.364C68.294 329.364 66.5611 329.861 65.098 330.855C63.6491 331.835 62.5341 333.114 61.7528 334.69C60.9716 336.267 60.581 337.957 60.581 339.761V342.659C60.581 345.131 61.0071 347.226 61.8594 348.945C62.7259 350.649 63.9261 351.949 65.4602 352.844C66.9943 353.724 68.777 354.165 70.8082 354.165C72.1293 354.165 73.3224 353.98 74.3878 353.611C75.4673 353.227 76.3977 352.659 77.179 351.906C77.9602 351.139 78.5639 350.187 78.9901 349.051L83.848 350.415C83.3366 352.062 82.4773 353.511 81.2699 354.761C80.0625 355.997 78.571 356.963 76.7955 357.659C75.0199 358.341 73.0241 358.682 70.8082 358.682ZM97.0369 338.312V358H92.0085V325.273H96.8665V330.386H97.2926C98.0597 328.724 99.2244 327.389 100.787 326.381C102.349 325.358 104.366 324.847 106.838 324.847C109.054 324.847 110.993 325.301 112.655 326.21C114.317 327.105 115.609 328.469 116.533 330.301C117.456 332.119 117.918 334.42 117.918 337.205V358H112.889V337.545C112.889 334.974 112.222 332.972 110.886 331.537C109.551 330.088 107.719 329.364 105.389 329.364C103.784 329.364 102.349 329.712 101.085 330.408C99.8352 331.104 98.848 332.119 98.1236 333.455C97.3991 334.79 97.0369 336.409 97.0369 338.312ZM147.731 344.619V325.273H152.76V358H147.731V352.46H147.39C146.623 354.122 145.43 355.536 143.811 356.7C142.191 357.851 140.146 358.426 137.674 358.426C135.629 358.426 133.811 357.979 132.22 357.084C130.629 356.175 129.379 354.811 128.47 352.993C127.561 351.161 127.106 348.852 127.106 346.068V325.273H132.135V345.727C132.135 348.114 132.802 350.017 134.137 351.438C135.487 352.858 137.206 353.568 139.294 353.568C140.544 353.568 141.815 353.249 143.108 352.609C144.414 351.97 145.508 350.99 146.389 349.669C147.284 348.348 147.731 346.665 147.731 344.619ZM209.356 328C208.887 326.565 208.269 325.28 207.502 324.143C206.749 322.993 205.847 322.013 204.796 321.203C203.759 320.393 202.58 319.776 201.259 319.349C199.938 318.923 198.489 318.71 196.913 318.71C194.327 318.71 191.977 319.378 189.86 320.713C187.744 322.048 186.06 324.016 184.81 326.615C183.56 329.214 182.935 332.403 182.935 336.182C182.935 339.96 183.567 343.149 184.832 345.749C186.096 348.348 187.808 350.315 189.967 351.651C192.126 352.986 194.555 353.653 197.254 353.653C199.754 353.653 201.955 353.121 203.859 352.055C205.776 350.976 207.268 349.456 208.333 347.496C209.413 345.521 209.952 343.199 209.952 340.528L211.572 340.869H198.447V336.182H215.066V340.869C215.066 344.463 214.299 347.588 212.765 350.244C211.245 352.901 209.143 354.96 206.458 356.423C203.788 357.872 200.719 358.597 197.254 358.597C193.39 358.597 189.995 357.688 187.069 355.869C184.157 354.051 181.884 351.466 180.251 348.114C178.631 344.761 177.822 340.784 177.822 336.182C177.822 332.73 178.283 329.626 179.207 326.871C180.144 324.101 181.465 321.743 183.17 319.797C184.874 317.851 186.891 316.359 189.221 315.322C191.55 314.286 194.114 313.767 196.913 313.767C199.214 313.767 201.359 314.115 203.347 314.811C205.35 315.493 207.133 316.466 208.695 317.73C210.272 318.98 211.586 320.479 212.637 322.226C213.688 323.959 214.413 325.884 214.81 328H209.356ZM244.059 344.619V325.273H249.088V358H244.059V352.46H243.718C242.951 354.122 241.758 355.536 240.139 356.7C238.52 357.851 236.474 358.426 234.002 358.426C231.957 358.426 230.139 357.979 228.548 357.084C226.957 356.175 225.707 354.811 224.798 352.993C223.889 351.161 223.434 348.852 223.434 346.068V325.273H228.463V345.727C228.463 348.114 229.13 350.017 230.466 351.438C231.815 352.858 233.534 353.568 235.622 353.568C236.872 353.568 238.143 353.249 239.436 352.609C240.743 351.97 241.836 350.99 242.717 349.669C243.612 348.348 244.059 346.665 244.059 344.619ZM258.298 370.273V325.273H263.156V330.472H263.752C264.121 329.903 264.633 329.179 265.286 328.298C265.954 327.403 266.906 326.608 268.141 325.912C269.391 325.202 271.082 324.847 273.212 324.847C275.968 324.847 278.397 325.536 280.499 326.913C282.602 328.291 284.242 330.244 285.421 332.773C286.6 335.301 287.19 338.284 287.19 341.722C287.19 345.188 286.6 348.192 285.421 350.734C284.242 353.263 282.609 355.223 280.521 356.615C278.433 357.993 276.025 358.682 273.298 358.682C271.195 358.682 269.512 358.334 268.248 357.638C266.984 356.928 266.011 356.125 265.329 355.23C264.647 354.321 264.121 353.568 263.752 352.972H263.326V370.273H258.298ZM263.241 341.636C263.241 344.108 263.603 346.288 264.327 348.178C265.052 350.053 266.11 351.523 267.502 352.588C268.894 353.639 270.599 354.165 272.616 354.165C274.718 354.165 276.472 353.611 277.879 352.503C279.299 351.381 280.364 349.875 281.075 347.986C281.799 346.082 282.161 343.966 282.161 341.636C282.161 339.335 281.806 337.261 281.096 335.415C280.4 333.554 279.342 332.084 277.921 331.004C276.515 329.911 274.746 329.364 272.616 329.364C270.57 329.364 268.852 329.882 267.46 330.919C266.067 331.942 265.016 333.376 264.306 335.223C263.596 337.055 263.241 339.193 263.241 341.636ZM309.093 325.273V329.534H292.133V325.273H309.093ZM297.076 317.432H302.104V348.625C302.104 350.045 302.31 351.111 302.722 351.821C303.148 352.517 303.688 352.986 304.342 353.227C305.009 353.455 305.712 353.568 306.451 353.568C307.005 353.568 307.46 353.54 307.815 353.483C308.17 353.412 308.454 353.355 308.667 353.312L309.69 357.83C309.349 357.957 308.873 358.085 308.262 358.213C307.651 358.355 306.877 358.426 305.94 358.426C304.519 358.426 303.127 358.121 301.763 357.51C300.414 356.899 299.292 355.969 298.397 354.719C297.516 353.469 297.076 351.892 297.076 349.989V317.432ZM326.288 358.767C324.214 358.767 322.332 358.376 320.641 357.595C318.951 356.8 317.609 355.656 316.614 354.165C315.62 352.659 315.123 350.841 315.123 348.71C315.123 346.835 315.492 345.315 316.231 344.151C316.969 342.972 317.957 342.048 319.192 341.381C320.428 340.713 321.792 340.216 323.283 339.889C324.789 339.548 326.302 339.278 327.822 339.08C329.81 338.824 331.423 338.632 332.658 338.504C333.908 338.362 334.817 338.128 335.386 337.801C335.968 337.474 336.259 336.906 336.259 336.097V335.926C336.259 333.824 335.684 332.19 334.533 331.026C333.397 329.861 331.671 329.278 329.356 329.278C326.955 329.278 325.073 329.804 323.71 330.855C322.346 331.906 321.387 333.028 320.833 334.222L316.06 332.517C316.913 330.528 318.049 328.98 319.469 327.872C320.904 326.75 322.467 325.969 324.157 325.528C325.862 325.074 327.538 324.847 329.185 324.847C330.237 324.847 331.444 324.974 332.808 325.23C334.185 325.472 335.513 325.976 336.792 326.743C338.085 327.51 339.157 328.668 340.009 330.216C340.862 331.764 341.288 333.838 341.288 336.438V358H336.259V353.568H336.004C335.663 354.278 335.094 355.038 334.299 355.848C333.504 356.658 332.445 357.347 331.124 357.915C329.803 358.483 328.191 358.767 326.288 358.767ZM327.055 354.25C329.043 354.25 330.719 353.859 332.083 353.078C333.461 352.297 334.498 351.288 335.194 350.053C335.904 348.817 336.259 347.517 336.259 346.153V341.551C336.046 341.807 335.577 342.041 334.853 342.254C334.143 342.453 333.319 342.631 332.381 342.787C331.458 342.929 330.556 343.057 329.675 343.17C328.809 343.27 328.106 343.355 327.566 343.426C326.259 343.597 325.038 343.874 323.901 344.257C322.779 344.626 321.87 345.187 321.174 345.94C320.492 346.679 320.151 347.687 320.151 348.966C320.151 350.713 320.798 352.034 322.09 352.929C323.397 353.81 325.052 354.25 327.055 354.25ZM369.812 358H364.272L380.295 314.364H385.75L401.772 358H396.233L383.193 321.267H382.852L369.812 358ZM371.858 340.955H394.187V345.642H371.858V340.955ZM421.183 358.682C418.115 358.682 415.473 357.957 413.257 356.509C411.041 355.06 409.336 353.064 408.143 350.521C406.95 347.979 406.353 345.074 406.353 341.807C406.353 338.483 406.964 335.55 408.186 333.007C409.422 330.45 411.14 328.455 413.342 327.02C415.558 325.571 418.143 324.847 421.098 324.847C423.399 324.847 425.473 325.273 427.319 326.125C429.166 326.977 430.679 328.17 431.858 329.705C433.037 331.239 433.768 333.028 434.052 335.074H429.024C428.64 333.582 427.788 332.261 426.467 331.111C425.16 329.946 423.399 329.364 421.183 329.364C419.223 329.364 417.504 329.875 416.027 330.898C414.564 331.906 413.42 333.334 412.596 335.18C411.787 337.013 411.382 339.165 411.382 341.636C411.382 344.165 411.779 346.366 412.575 348.241C413.385 350.116 414.521 351.572 415.984 352.609C417.461 353.646 419.194 354.165 421.183 354.165C422.49 354.165 423.676 353.938 424.741 353.483C425.806 353.028 426.708 352.375 427.447 351.523C428.186 350.67 428.711 349.648 429.024 348.455H434.052C433.768 350.386 433.065 352.126 431.943 353.675C430.835 355.209 429.365 356.43 427.532 357.339C425.714 358.234 423.598 358.682 421.183 358.682ZM446.431 338.312V358H441.403V314.364H446.431V330.386H446.858C447.625 328.696 448.775 327.354 450.309 326.359C451.858 325.351 453.917 324.847 456.488 324.847C458.718 324.847 460.672 325.294 462.348 326.189C464.024 327.07 465.324 328.426 466.247 330.259C467.184 332.077 467.653 334.392 467.653 337.205V358H462.625V337.545C462.625 334.946 461.95 332.936 460.6 331.516C459.265 330.081 457.412 329.364 455.039 329.364C453.392 329.364 451.914 329.712 450.608 330.408C449.315 331.104 448.292 332.119 447.539 333.455C446.801 334.79 446.431 336.409 446.431 338.312ZM476.852 358V325.273H481.881V358H476.852ZM479.409 319.818C478.429 319.818 477.584 319.484 476.874 318.817C476.178 318.149 475.83 317.347 475.83 316.409C475.83 315.472 476.178 314.669 476.874 314.001C477.584 313.334 478.429 313 479.409 313C480.389 313 481.227 313.334 481.923 314.001C482.634 314.669 482.989 315.472 482.989 316.409C482.989 317.347 482.634 318.149 481.923 318.817C481.227 319.484 480.389 319.818 479.409 319.818ZM504.812 358.682C501.659 358.682 498.939 357.986 496.652 356.594C494.379 355.188 492.625 353.227 491.389 350.713C490.167 348.185 489.556 345.244 489.556 341.892C489.556 338.54 490.167 335.585 491.389 333.028C492.625 330.457 494.343 328.455 496.545 327.02C498.761 325.571 501.346 324.847 504.301 324.847C506.005 324.847 507.689 325.131 509.35 325.699C511.012 326.267 512.525 327.19 513.889 328.469C515.252 329.733 516.339 331.409 517.149 333.497C517.958 335.585 518.363 338.156 518.363 341.21V343.341H493.136V338.994H513.25C513.25 337.148 512.88 335.5 512.142 334.051C511.417 332.602 510.38 331.459 509.031 330.621C507.696 329.783 506.119 329.364 504.301 329.364C502.298 329.364 500.565 329.861 499.102 330.855C497.653 331.835 496.538 333.114 495.757 334.69C494.975 336.267 494.585 337.957 494.585 339.761V342.659C494.585 345.131 495.011 347.226 495.863 348.945C496.73 350.649 497.93 351.949 499.464 352.844C500.998 353.724 502.781 354.165 504.812 354.165C506.133 354.165 507.326 353.98 508.392 353.611C509.471 353.227 510.402 352.659 511.183 351.906C511.964 351.139 512.568 350.187 512.994 349.051L517.852 350.415C517.341 352.062 516.481 353.511 515.274 354.761C514.066 355.997 512.575 356.963 510.799 357.659C509.024 358.341 507.028 358.682 504.812 358.682ZM551.778 325.273L539.675 358H534.562L522.46 325.273H527.914L536.948 351.352H537.289L546.323 325.273H551.778ZM570.964 358.682C567.811 358.682 565.091 357.986 562.804 356.594C560.531 355.188 558.777 353.227 557.541 350.713C556.32 348.185 555.709 345.244 555.709 341.892C555.709 338.54 556.32 335.585 557.541 333.028C558.777 330.457 560.496 328.455 562.697 327.02C564.913 325.571 567.499 324.847 570.453 324.847C572.158 324.847 573.841 325.131 575.503 325.699C577.165 326.267 578.678 327.19 580.041 328.469C581.405 329.733 582.491 331.409 583.301 333.497C584.111 335.585 584.516 338.156 584.516 341.21V343.341H559.288V338.994H579.402C579.402 337.148 579.033 335.5 578.294 334.051C577.57 332.602 576.533 331.459 575.183 330.621C573.848 329.783 572.271 329.364 570.453 329.364C568.45 329.364 566.717 329.861 565.254 330.855C563.805 331.835 562.69 333.114 561.909 334.69C561.128 336.267 560.737 337.957 560.737 339.761V342.659C560.737 345.131 561.163 347.226 562.016 348.945C562.882 350.649 564.082 351.949 565.616 352.844C567.151 353.724 568.933 354.165 570.964 354.165C572.286 354.165 573.479 353.98 574.544 353.611C575.624 353.227 576.554 352.659 577.335 351.906C578.116 351.139 578.72 350.187 579.146 349.051L584.004 350.415C583.493 352.062 582.634 353.511 581.426 354.761C580.219 355.997 578.727 356.963 576.952 357.659C575.176 358.341 573.18 358.682 570.964 358.682ZM592.165 358V325.273H597.023V330.216H597.364C597.96 328.597 599.04 327.283 600.602 326.274C602.165 325.266 603.926 324.761 605.886 324.761C606.256 324.761 606.717 324.768 607.271 324.783C607.825 324.797 608.244 324.818 608.528 324.847V329.96C608.358 329.918 607.967 329.854 607.357 329.768C606.76 329.669 606.128 329.619 605.46 329.619C603.869 329.619 602.449 329.953 601.199 330.621C599.963 331.274 598.983 332.183 598.259 333.348C597.548 334.499 597.193 335.812 597.193 337.29V358H592.165ZM637.671 332.602L633.154 333.881C632.87 333.128 632.451 332.396 631.897 331.686C631.357 330.962 630.618 330.365 629.681 329.896C628.743 329.428 627.543 329.193 626.08 329.193C624.077 329.193 622.408 329.655 621.073 330.578C619.752 331.487 619.091 332.645 619.091 334.051C619.091 335.301 619.546 336.288 620.455 337.013C621.364 337.737 622.784 338.341 624.716 338.824L629.574 340.017C632.5 340.727 634.681 341.814 636.115 343.277C637.55 344.726 638.267 346.594 638.267 348.881C638.267 350.756 637.728 352.432 636.648 353.909C635.583 355.386 634.091 356.551 632.174 357.403C630.256 358.256 628.026 358.682 625.483 358.682C622.145 358.682 619.382 357.957 617.195 356.509C615.007 355.06 613.623 352.943 613.04 350.159L617.813 348.966C618.267 350.727 619.127 352.048 620.391 352.929C621.669 353.81 623.338 354.25 625.398 354.25C627.742 354.25 629.603 353.753 630.98 352.759C632.373 351.75 633.069 350.543 633.069 349.136C633.069 348 632.671 347.048 631.875 346.281C631.08 345.5 629.858 344.918 628.211 344.534L622.756 343.256C619.759 342.545 617.557 341.445 616.151 339.953C614.759 338.447 614.063 336.565 614.063 334.307C614.063 332.46 614.581 330.827 615.618 329.406C616.669 327.986 618.097 326.871 619.901 326.061C621.719 325.251 623.779 324.847 626.08 324.847C629.319 324.847 631.861 325.557 633.708 326.977C635.569 328.398 636.89 330.273 637.671 332.602ZM665.183 358H659.643L675.666 314.364H681.121L697.143 358H691.604L678.564 321.267H678.223L665.183 358ZM667.229 340.955H689.558V345.642H667.229V340.955ZM716.554 358.682C713.486 358.682 710.844 357.957 708.628 356.509C706.412 355.06 704.707 353.064 703.514 350.521C702.321 347.979 701.724 345.074 701.724 341.807C701.724 338.483 702.335 335.55 703.557 333.007C704.793 330.45 706.511 328.455 708.713 327.02C710.929 325.571 713.514 324.847 716.469 324.847C718.77 324.847 720.844 325.273 722.69 326.125C724.537 326.977 726.05 328.17 727.229 329.705C728.408 331.239 729.139 333.028 729.423 335.074H724.395C724.011 333.582 723.159 332.261 721.838 331.111C720.531 329.946 718.77 329.364 716.554 329.364C714.594 329.364 712.875 329.875 711.398 330.898C709.935 331.906 708.791 333.334 707.967 335.18C707.158 337.013 706.753 339.165 706.753 341.636C706.753 344.165 707.151 346.366 707.946 348.241C708.756 350.116 709.892 351.572 711.355 352.609C712.832 353.646 714.565 354.165 716.554 354.165C717.861 354.165 719.047 353.938 720.112 353.483C721.178 353.028 722.08 352.375 722.818 351.523C723.557 350.67 724.082 349.648 724.395 348.455H729.423C729.139 350.386 728.436 352.126 727.314 353.675C726.206 355.209 724.736 356.43 722.903 357.339C721.085 358.234 718.969 358.682 716.554 358.682ZM746.405 358.767C744.331 358.767 742.449 358.376 740.759 357.595C739.068 356.8 737.726 355.656 736.732 354.165C735.737 352.659 735.24 350.841 735.24 348.71C735.24 346.835 735.609 345.315 736.348 344.151C737.087 342.972 738.074 342.048 739.31 341.381C740.545 340.713 741.909 340.216 743.401 339.889C744.906 339.548 746.419 339.278 747.939 339.08C749.928 338.824 751.54 338.632 752.776 338.504C754.026 338.362 754.935 338.128 755.503 337.801C756.085 337.474 756.376 336.906 756.376 336.097V335.926C756.376 333.824 755.801 332.19 754.651 331.026C753.514 329.861 751.788 329.278 749.473 329.278C747.072 329.278 745.19 329.804 743.827 330.855C742.463 331.906 741.504 333.028 740.95 334.222L736.178 332.517C737.03 330.528 738.166 328.98 739.587 327.872C741.021 326.75 742.584 325.969 744.274 325.528C745.979 325.074 747.655 324.847 749.303 324.847C750.354 324.847 751.561 324.974 752.925 325.23C754.303 325.472 755.631 325.976 756.909 326.743C758.202 327.51 759.274 328.668 760.126 330.216C760.979 331.764 761.405 333.838 761.405 336.438V358H756.376V353.568H756.121C755.78 354.278 755.212 355.038 754.416 355.848C753.621 356.658 752.563 357.347 751.241 357.915C749.92 358.483 748.308 358.767 746.405 358.767ZM747.172 354.25C749.161 354.25 750.837 353.859 752.2 353.078C753.578 352.297 754.615 351.288 755.311 350.053C756.021 348.817 756.376 347.517 756.376 346.153V341.551C756.163 341.807 755.695 342.041 754.97 342.254C754.26 342.453 753.436 342.631 752.499 342.787C751.575 342.929 750.673 343.057 749.793 343.17C748.926 343.27 748.223 343.355 747.683 343.426C746.376 343.597 745.155 343.874 744.018 344.257C742.896 344.626 741.987 345.187 741.291 345.94C740.609 346.679 740.268 347.687 740.268 348.966C740.268 350.713 740.915 352.034 742.207 352.929C743.514 353.81 745.169 354.25 747.172 354.25ZM782.941 358.682C780.213 358.682 777.806 357.993 775.718 356.615C773.63 355.223 771.996 353.263 770.817 350.734C769.638 348.192 769.049 345.188 769.049 341.722C769.049 338.284 769.638 335.301 770.817 332.773C771.996 330.244 773.637 328.291 775.739 326.913C777.841 325.536 780.27 324.847 783.026 324.847C785.157 324.847 786.84 325.202 788.076 325.912C789.326 326.608 790.277 327.403 790.931 328.298C791.598 329.179 792.117 329.903 792.486 330.472H792.912V314.364H797.941V358H793.083V352.972H792.486C792.117 353.568 791.591 354.321 790.909 355.23C790.228 356.125 789.255 356.928 787.99 357.638C786.726 358.334 785.043 358.682 782.941 358.682ZM783.623 354.165C785.64 354.165 787.344 353.639 788.736 352.588C790.128 351.523 791.186 350.053 791.911 348.178C792.635 346.288 792.998 344.108 792.998 341.636C792.998 339.193 792.642 337.055 791.932 335.223C791.222 333.376 790.171 331.942 788.779 330.919C787.387 329.882 785.668 329.364 783.623 329.364C781.492 329.364 779.716 329.911 778.296 331.004C776.89 332.084 775.831 333.554 775.121 335.415C774.425 337.261 774.077 339.335 774.077 341.636C774.077 343.966 774.432 346.082 775.142 347.986C775.867 349.875 776.932 351.381 778.338 352.503C779.759 353.611 781.52 354.165 783.623 354.165ZM821.57 358.682C818.417 358.682 815.696 357.986 813.409 356.594C811.137 355.188 809.382 353.227 808.147 350.713C806.925 348.185 806.314 345.244 806.314 341.892C806.314 338.54 806.925 335.585 808.147 333.028C809.382 330.457 811.101 328.455 813.303 327.02C815.519 325.571 818.104 324.847 821.059 324.847C822.763 324.847 824.446 325.131 826.108 325.699C827.77 326.267 829.283 327.19 830.647 328.469C832.01 329.733 833.097 331.409 833.907 333.497C834.716 335.585 835.121 338.156 835.121 341.21V343.341H809.894V338.994H830.007C830.007 337.148 829.638 335.5 828.9 334.051C828.175 332.602 827.138 331.459 825.789 330.621C824.453 329.783 822.877 329.364 821.059 329.364C819.056 329.364 817.323 329.861 815.86 330.855C814.411 331.835 813.296 333.114 812.515 334.69C811.733 336.267 811.343 337.957 811.343 339.761V342.659C811.343 345.131 811.769 347.226 812.621 348.945C813.488 350.649 814.688 351.949 816.222 352.844C817.756 353.724 819.539 354.165 821.57 354.165C822.891 354.165 824.084 353.98 825.15 353.611C826.229 353.227 827.159 352.659 827.941 351.906C828.722 351.139 829.326 350.187 829.752 349.051L834.61 350.415C834.098 352.062 833.239 353.511 832.032 354.761C830.824 355.997 829.333 356.963 827.557 357.659C825.782 358.341 823.786 358.682 821.57 358.682ZM842.77 358V325.273H847.628V330.386H848.054C848.736 328.639 849.837 327.283 851.357 326.317C852.877 325.337 854.702 324.847 856.833 324.847C858.992 324.847 860.789 325.337 862.223 326.317C863.672 327.283 864.801 328.639 865.611 330.386H865.952C866.79 328.696 868.047 327.354 869.723 326.359C871.4 325.351 873.409 324.847 875.753 324.847C878.679 324.847 881.073 325.763 882.934 327.595C884.794 329.413 885.725 332.247 885.725 336.097V358H880.696V336.097C880.696 333.682 880.036 331.956 878.715 330.919C877.394 329.882 875.838 329.364 874.049 329.364C871.748 329.364 869.965 330.06 868.701 331.452C867.436 332.83 866.804 334.577 866.804 336.693V358H861.691V335.585C861.691 333.724 861.087 332.226 859.88 331.089C858.672 329.939 857.117 329.364 855.213 329.364C853.907 329.364 852.685 329.712 851.549 330.408C850.426 331.104 849.517 332.07 848.821 333.305C848.14 334.527 847.799 335.94 847.799 337.545V358H842.77ZM896.985 370.273C896.133 370.273 895.373 370.202 894.706 370.06C894.038 369.932 893.576 369.804 893.321 369.676L894.599 365.244C895.821 365.557 896.9 365.67 897.838 365.585C898.775 365.5 899.606 365.081 900.331 364.328C901.069 363.589 901.744 362.389 902.355 360.727L903.292 358.17L891.19 325.273H896.645L905.679 351.352H906.02L915.054 325.273H920.508L906.616 362.773C905.991 364.463 905.217 365.862 904.294 366.97C903.37 368.092 902.298 368.923 901.076 369.463C899.869 370.003 898.505 370.273 896.985 370.273Z" fill="black"/>
</svg>
