<svg width="937" height="244" viewBox="0 0 937 244" fill="none" xmlns="http://www.w3.org/2000/svg">
<path d="M286.844 0C308.942 0 328.25 5.03453 344.768 15.1036C361.286 25.1727 374.121 39.1575 383.272 57.058C392.424 75.1823 397 96.2155 397 120.157C397 144.323 392.312 165.58 382.937 183.928C373.339 202.5 359.835 216.932 342.424 227.225C324.79 237.742 303.92 243 279.812 243C252.357 243 229.589 236.399 211.509 223.198C193.429 209.996 181.71 191.76 176.353 168.489H224.232C227.804 179.453 234.277 187.956 243.652 193.997C253.027 200.262 265.08 203.395 279.812 203.395C303.25 203.395 321.33 195.899 334.054 180.907C346.777 166.139 353.138 145.778 353.138 119.822C353.138 93.866 346.888 73.7279 334.388 59.4075C321.665 45.3108 304.478 38.2624 282.826 38.2624C261.621 38.2624 245.661 43.9682 234.946 55.3798C224.009 67.0152 217.424 82.2307 215.192 101.026H274.455V133.247H172V4.02762H211.509L214.857 34.9061C222.446 23.7182 231.933 15.1036 243.317 9.06215C254.701 3.02072 269.21 0 286.844 0Z" fill="#00D13B"/>
<path d="M552.75 243.253C529.869 243.253 509.277 238.105 490.972 227.809C472.954 217.227 458.653 202.926 448.071 184.908C437.775 166.603 432.626 146.154 432.626 123.559C432.626 100.678 437.775 80.2288 448.071 62.2103C458.653 43.9057 472.954 29.6053 490.972 19.309C509.277 8.72668 529.869 3.43555 552.75 3.43555C575.631 3.43555 596.08 8.72668 614.099 19.309C632.117 29.6053 646.275 43.9057 656.571 62.2103C667.153 80.2288 672.444 100.678 672.444 123.559L661.719 140.72C661.719 160.168 656.857 177.615 647.133 193.059C637.694 208.503 624.824 220.802 608.522 229.954C592.219 238.82 573.629 243.253 552.75 243.253ZM552.75 219.229C570.768 219.229 586.785 215.082 600.799 206.787C615.1 198.207 626.254 186.767 634.262 172.466C642.557 157.88 646.704 141.578 646.704 123.559C646.704 105.254 642.557 88.952 634.262 74.6516C626.254 60.0652 615.1 48.6249 600.799 40.3306C586.785 31.7504 570.768 27.4602 552.75 27.4602C535.017 27.4602 519.001 31.7504 504.701 40.3306C490.4 48.6249 479.103 60.0652 470.809 74.6516C462.514 88.952 458.367 105.254 458.367 123.559C458.367 141.578 462.514 157.88 470.809 172.466C479.103 186.767 490.4 198.207 504.701 206.787C519.001 215.082 535.017 219.229 552.75 219.229ZM659.574 240.679C655.856 240.679 652.71 239.535 650.136 237.247C647.848 234.673 646.704 231.527 646.704 227.809V149.3L654.855 123.559H672.444V227.809C672.444 231.527 671.3 234.673 669.012 237.247C666.724 239.535 663.578 240.679 659.574 240.679Z" fill="#1C1C1C"/>
<path d="M8.87323 99.9633C10.5893 81.6588 15.5944 65.4993 23.8887 51.4849C32.1829 37.1845 42.9082 26.0302 56.0646 18.0219C69.221 10.0137 83.8074 6.00958 99.8239 6.00958C110.692 6.00958 119.129 7.29662 125.136 9.8707C131.142 12.4448 133.43 17.0209 132 23.5991C131.142 27.8892 129.14 30.4633 125.994 31.3214C122.848 32.1794 118.986 32.3223 114.41 31.7503C110.12 30.8923 105.258 30.4633 99.8239 30.4633C85.5234 30.4633 72.7961 33.4664 61.6418 39.4725C50.4875 45.4787 41.7642 53.773 35.472 64.3553C29.1798 74.6516 26.0338 86.5209 26.0338 99.9633H8.87323ZM13.1633 243.253C9.44522 243.253 6.29917 242.109 3.7251 239.821C1.43703 237.247 0.292969 234.101 0.292969 230.383V21.454C0.292969 17.4499 1.43703 14.3038 3.7251 12.0157C6.29917 9.72768 9.44522 8.58365 13.1633 8.58365C17.1674 8.58365 20.3136 9.72768 22.6016 12.0157C24.8897 14.3038 26.0338 17.4499 26.0338 21.454V230.383C26.0338 234.101 24.8897 237.247 22.6016 239.821C20.3136 242.109 17.1674 243.253 13.1633 243.253Z" fill="#1C1C1C"/>
<path d="M817.306 243.25C794.425 243.25 773.833 238.102 755.528 227.806C737.51 217.223 723.21 202.923 712.627 184.904C702.331 166.6 697.183 146.15 697.183 123.556C697.183 100.675 702.331 80.2254 712.627 62.2068C723.21 43.9023 737.51 29.6019 755.528 19.3056C773.833 8.72327 794.425 3.43213 817.306 3.43213C840.186 3.43213 860.636 8.72327 878.655 19.3056C896.673 29.6019 910.83 43.9023 921.126 62.2068C931.709 80.2254 937 100.675 937 123.556L926.275 140.716C926.275 160.165 921.413 177.611 911.688 193.056C902.25 208.5 889.38 220.798 873.077 229.951C856.775 238.817 838.184 243.25 817.306 243.25ZM817.306 219.225C835.324 219.225 851.341 215.078 865.355 206.784C879.655 198.204 890.81 186.763 898.818 172.463C907.112 157.877 911.259 141.574 911.259 123.556C911.259 105.251 907.112 88.9486 898.818 74.6482C890.81 60.0618 879.655 48.6214 865.355 40.3272C851.341 31.747 835.324 27.4568 817.306 27.4568C799.573 27.4568 783.557 31.747 769.257 40.3272C754.956 48.6214 743.659 60.0618 735.365 74.6482C727.071 88.9486 722.924 105.251 722.924 123.556C722.924 141.574 727.071 157.877 735.365 172.463C743.659 186.763 754.956 198.204 769.257 206.784C783.557 215.078 799.573 219.225 817.306 219.225ZM924.13 240.676C920.412 240.676 917.265 239.532 914.691 237.244C912.403 234.67 911.259 231.524 911.259 227.806V149.296L919.41 123.556H937V227.806C937 231.524 935.856 234.67 933.568 237.244C931.28 239.532 928.134 240.676 924.13 240.676Z" fill="#1C1C1C"/>
</svg>
